<svg width="24" height="24" viewBox="0 0 24 24" fill="none" xmlns="http://www.w3.org/2000/svg">
<path fill-rule="evenodd" clip-rule="evenodd" d="M8.5 8C8.5 6.067 10.067 4.5 12 4.5C13.933 4.5 15.5 6.06701 15.5 8C15.5 9.93299 13.933 11.5 12 11.5C10.067 11.5 8.5 9.933 8.5 8ZM12 3.5C9.51472 3.5 7.5 5.51472 7.5 8C7.5 10.4853 9.51472 12.5 12 12.5C14.4852 12.5 16.5 10.4853 16.5 8C16.5 5.51471 14.4852 3.5 12 3.5ZM4.5 19.2857C4.5 18.2243 4.87551 17.2917 5.59746 16.6218C6.32106 15.9503 7.43953 15.5 9 15.5H15C16.5605 15.5 17.6789 15.9503 18.4025 16.6218C19.1245 17.2917 19.5 18.2243 19.5 19.2857V20C19.5 20.2761 19.7239 20.5 20 20.5C20.2761 20.5 20.5 20.2761 20.5 20V19.2857C20.5 17.9802 20.0324 16.7699 19.0827 15.8887C18.1348 15.0091 16.7532 14.5 15 14.5H9C7.24676 14.5 5.86523 15.0091 4.91726 15.8887C3.96764 16.7699 3.5 17.9802 3.5 19.2857V20C3.5 20.2761 3.72386 20.5 4 20.5C4.27614 20.5 4.5 20.2761 4.5 20V19.2857Z" fill="black"/>
</svg>
