<svg width="24" height="24" viewBox="0 0 24 24" fill="none" xmlns="http://www.w3.org/2000/svg">
<path fill-rule="evenodd" clip-rule="evenodd" d="M12 3.5C11.061 3.5 10.1674 3.8982 9.51392 4.59529C8.86142 5.29128 8.50001 6.22874 8.50001 7.2L8.5 8C8.5 8.27614 8.72385 8.5 9 8.5H5.79805C5.23913 8.49992 4.69044 8.68127 4.26281 9.02243C3.83349 9.36493 3.55213 9.84961 3.50214 10.3881C3.49909 10.4211 3.4993 10.4542 3.50278 10.487L4.32386 18.237C4.30622 18.5139 4.35114 18.79 4.45461 19.049C4.56458 19.3243 4.73703 19.5713 4.95624 19.7767C5.17528 19.9819 5.43691 20.1419 5.72268 20.2502C6.00778 20.3582 6.31332 20.4133 6.62072 20.4136L17.2466 20.5H17.2508C17.5589 20.4999 17.8652 20.4448 18.1509 20.3365C18.4367 20.2283 18.6983 20.0683 18.9174 19.863C19.1366 19.6576 19.309 19.4107 19.419 19.1354C19.522 18.8776 19.567 18.6029 19.55 18.3273L20.4964 10.4943C20.5006 10.4591 20.5011 10.4235 20.4979 10.3881C20.4479 9.84961 20.1665 9.36493 19.7372 9.02243C19.3096 8.68127 18.761 8.49992 18.202 8.5H15C15.2761 8.5 15.5 8.27615 15.5 8V7.20001C15.5 6.22874 15.1386 5.29128 14.4861 4.59529C13.8326 3.8982 12.9391 3.5 12 3.5ZM15 8.5C14.7238 8.5 14.5 8.27614 14.5 8V7.2C14.5 6.47388 14.2293 5.78347 13.7566 5.27923C13.2849 4.77608 12.6522 4.5 12 4.5C11.3478 4.5 10.7152 4.77608 10.2435 5.27923C9.77073 5.78347 9.50001 6.47388 9.50001 7.2L9.5 8C9.5 8.27615 9.27614 8.5 9 8.5H15ZM18.2021 9.5C18.5499 9.49994 18.8748 9.6137 19.1136 9.80415C19.3353 9.98108 19.4625 10.2064 19.4965 10.4336L18.5513 18.2562C18.5471 18.2915 18.5466 18.3271 18.5498 18.3624C18.5623 18.4968 18.5428 18.6332 18.4904 18.7644C18.4378 18.896 18.352 19.0224 18.2336 19.1333C18.115 19.2444 17.967 19.3369 17.7967 19.4014C17.627 19.4656 17.4416 19.4997 17.2525 19.5L6.62703 19.4137L6.62309 19.4136C6.43333 19.4136 6.24717 19.3795 6.0769 19.315C5.90665 19.2505 5.75857 19.158 5.63998 19.0469C5.52157 18.936 5.43582 18.8096 5.38325 18.678C5.33083 18.5468 5.31129 18.4104 5.32376 18.276C5.32682 18.2431 5.3266 18.21 5.32312 18.1771L4.50306 10.4369C4.53626 10.2086 4.66359 9.98193 4.88644 9.80415C5.12516 9.6137 5.45008 9.49994 5.79787 9.5H18.2021Z" fill="black"/>
</svg>
